<?xml version="1.0" encoding="UTF-8"?>
<svg id="Capa_2" data-name="Capa 2" xmlns="http://www.w3.org/2000/svg" viewBox="0 0 89.08 147.5">
  <defs>
    <style>
        path { fill: #1d1d1b; }
        @media (prefers-color-scheme: dark) {
            path { fill: #FFF; }
        }
    </style>
  </defs>
  <g id="Capa_2-2" data-name="Capa 2">
    <g>
      <path class="cls-1" d="m48.36.45L36.4.01c-9.5-.35-17.48,7.07-17.83,16.57l-.16,4.53,46.36,1.7.16-4.53c.35-9.5-7.07-17.49-16.57-17.83Zm10.31,9.74c-.29.48-.69.78-1.31.79-1.08.02-1.86-.61-2.6-1.24-.88-.73-1.83-1.3-2.92-1.65-.82-.27-1.7-.57-1.48-1.68.24-1.15,1.23-.66,2.04-.76,2.43.14,4.35,1.41,6,3.21.36.39.58.82.27,1.33Zm1.44,4.03c-.76.03-1.2-.5-1.05-1.25.18-.92.56-1.88,1.65-1.95.85-.05,1.19.69,1.26,1.47-.18,1.08-.82,1.7-1.86,1.73Z"/>
      <path class="cls-1" d="m44.92,135.18c-.22-.18-.44-.35-.68-.51-1.95-1.39-4.27-2.17-6.71-2.26-.15,0-.29,0-.44,0-2.56,0-5.06.8-7.14,2.26l-14.67-20.37c.43-1.58,2.98-3.13,6.55-3.13.14,0,.28,0,.42,0,2.74.09,5.19,1.1,6.24,2.56l1.63,2.27,1.8-2.15c1.1-1.31,3.4-2.13,5.99-2.13.14,0,.28,0,.43,0,2.74.09,5.19,1.1,6.24,2.56l1.63,2.27,1.8-2.15c1.1-1.31,3.4-2.13,5.99-2.13.14,0,.28,0,.43,0,1.95.07,3.82.62,5.12,1.52.55.38,1.42,1.12,1.59,2.07l-16.22,19.3Z"/>
      <path class="cls-1" d="m45.94,77.32c.27-.28.52-.57.75-.89l-1.29,35.02-.03.9c-.24-.33-.54-.65-.88-.93-1.4-1.21-3.56-2.01-6-2.1-2.44-.09-4.65.56-6.13,1.64-.36.27-.67.56-.94.87l.03-.9,1.16-31.74c.8.52,1.67.9,2.61,1.14.44.11.85.19,1.24.24.4.06.82.1,1.25.11.25.01.5.01.76.01,2.75-.04,5.47-1.27,7.47-3.37Z"/>
      <path class="cls-1" d="m27.33,68.62c1.22.99,2.4,1.94,3.59,2.75l.28-7.61c-2.17,3.32-5.59,5.35-9.14,5.35h-.34c-.32-.01-.65-.04-.98-.09-1.33-.18-2.6-.65-3.77-1.38l-.23,6.26-14.87,13.69c-.62.57-1.77,1.63-1.86,3.14-.07,1.23.47,2.95,3.5,4.24,3.96,1.71,8.09,2.98,12.32,3.81l-.47,12.73-.08,2.13c.1-2.85,3.71-5.04,8.07-4.88,2.52.1,4.73.95,6.12,2.22l.03-.78,1.2-32.68c-1.62-1.8-2.99-4.47-4.31-8.24-.09-.25,0-.53.22-.69.22-.15.52-.14.72.03Zm-11.39,27.13c-3.86-.79-7.63-1.97-11.26-3.52-1.18-.51-1.71-1.04-1.69-1.31.02-.32.64-.89.9-1.13l12.7-11.69-.65,17.65Z"/>
      <path class="cls-1" d="m89.08,59.6c-.1,2.83-2.63,5.04-5.62,4.93-.14,0-.28-.02-.42-.03-1.08,8.98-2.93,17.91-5.48,26.57-.25.87-1.02,3.49-3.38,3.86-.2.04-.42.05-.63.04-1.29-.05-2.35-.84-2.86-1.23-3.12-2.34-5.91-5.14-8.27-8.26l-1.02,27.71-.07,2c0-2.79-3.41-5.16-7.69-5.32-2.51-.09-4.77.6-6.26,1.75l.03-.76,1.39-38.07c.14-.29.27-.58.41-.87.28-.6.55-1.19.84-1.76.13-.25.06-.56-.16-.74-.23-.18-.55-.17-.77.03-.07.06-.14.12-.21.18l.07-1.85.03-.96.02-.52c1.74,1.33,3.9,2.16,6.26,2.25,3.02.11,5.81-1.02,7.86-2.94l-.02.48-.04,1.2-.48,13.15c2.56,4.22,5.93,7.95,9.87,10.91.23.17.91.69,1.23.63.08-.01.52-.16.99-1.75,2.57-8.77,4.42-17.81,5.47-26.89-.74-.58-1.31-1.35-1.64-2.22-1.5-.95-2.4-2.41-2.4-3.76,0-.43.09-.85.29-1.24.53-1.06,1.71-1.64,3.08-1.66-.15-.82-.22-1.73-.18-2.67.1-2.87,1.2-5.89,3.02-5.83,1.83.07,2.7,3.16,2.59,6.04-.03.82-.13,1.64-.31,2.39.36.21.69.41.99.6,2.52,1.5,3.56,2.13,3.47,4.61Z"/>
      <path class="cls-1" d="m64.16,38.16l-.35,9.59c-2.16-1.79-4.85-2.82-7.65-2.91-.16,0-.33,0-.5,0-2.05,0-4.08.5-5.9,1.47l.03-.82c.15.02.29.02.43.02,1.64,0,2.74-.54,3.02-1.46.23-.76-.16-1.62-1.08-2.41-.57-.49-1.32-.93-2.18-1.28l.08-2.1c.01-.33-.42-.61-.96-.63-.55-.02-1,.23-1.01.56l-.06,1.57c-.66-.15-1.31-.23-1.92-.23-1.64,0-2.74.53-3.02,1.46-.43,1.45,1.42,3.2,4.31,4.07.15.04.29.08.44.11l-.09,2.45c-.14.11-.27.22-.4.33-2.68,2.31-4.29,5.66-4.42,9.19-.13,3.53,1.23,6.98,3.73,9.48.12.12.24.24.37.36l-.15,4.28c-3.07,2.19-6.05,3.19-8.88,2.98-1.82-.13-3.5-.74-5.14-1.66l.56-15.32.07-1.86.44-11.95c.71-.37,1.33-.79,1.81-1.24.89-.83,1.23-1.7.97-2.45-.28-.81-1.22-1.29-2.6-1.32.01-.33-.42-.61-.97-.63-.54-.02-.99.23-1.01.56v.28c-.43.08-.87.21-1.3.36-2.85,1-4.62,2.82-4.12,4.25.3.85,1.3,1.33,2.77,1.33.75,0,1.59-.13,2.44-.36l-.18,4.81c-1.69-2.96-4.37-4.87-7.48-5.29-.43-.06-.86-.09-1.29-.09-1.79,0-3.57.51-5.18,1.48l.32-8.66,46.05,1.69Z"/>
      <path class="cls-1" d="m44.47,138.61s0,0,0,0l-6.85,8.66c-.12.15-.3.23-.49.23s-.36-.1-.47-.26l-6.2-9.14s0,0,0,0c-.16-.23-.13-.54.07-.75.03-.03.06-.06.09-.09.14-.15.29-.28.44-.42,1.84-1.66,4.14-2.52,6.56-2.43,1.9.07,3.68.72,5.19,1.86.41.31.81.66,1.17,1.05.14.14.28.29.41.45.03.03.05.06.08.1.18.22.18.53.01.75Z"/>
      <path class="cls-1" d="m68.05,27.72l-.18,4.8c-.05,1.36-1.59,2.42-3.43,2.35l-46.67-1.71c-1.84-.07-3.3-1.23-3.25-2.6l.18-4.8c.05-1.37,1.59-2.42,3.43-2.36l46.67,1.71c1.84.07,3.3,1.23,3.25,2.6Z"/>
      <path class="cls-1" d="m31.7,50.16c-1.49-3.14-4.19-5.41-7.52-5.86-2.27-.31-4.5.27-6.41,1.51-2.85,1.85-5,5.16-5.55,9.15-.44,3.21.2,6.37,1.81,8.92.81,1.29,1.81,2.32,2.96,3.1,1.16.78,2.46,1.29,3.85,1.48.3.05.6.07.9.08,3.86.14,7.47-2.24,9.5-5.96.78-1.42,1.32-3.04,1.56-4.78.38-2.76-.06-5.42-1.1-7.64Zm-.12,7.47c-.02.17-.05.35-.08.52.01.01,0,.02-.01.03-.01.07-.02.13-.04.19-.02.12-.04.24-.07.36-1.22,5.41-5.68,9.16-10.37,8.51-1.46-.2-2.81-.81-3.96-1.76-.75-.62-1.42-1.37-1.98-2.26-.14-.23-.28-.46-.4-.7-.11-.2-.21-.4-.29-.6-.06-.12-.11-.24-.16-.36-.07-.16-.13-.31-.19-.47-.02-.08-.05-.17-.08-.25-.06-.17-.11-.34-.16-.52-.02-.08-.04-.16-.06-.25-.05-.16-.09-.33-.12-.5-.03-.1-.05-.2-.06-.3-.03-.16-.06-.33-.09-.5-.01-.1-.03-.21-.04-.31-.02-.18-.04-.36-.05-.54-.01-.06-.01-.12-.01-.18-.02-.28-.04-.56-.03-.85,0-.16,0-.33.01-.49.01-.23.03-.46.06-.7.01-.09.01-.18.02-.27.01-.05.01-.1.01-.14,0-.05.01-.1.02-.14v-.02c.02-.13.04-.26.06-.39.29-1.76.93-3.36,1.81-4.72,0-.01.01-.01.01-.01.15-.25.32-.49.5-.72.21-.28.43-.54.65-.79.19-.21.39-.41.6-.6.11-.09.21-.19.31-.28.1-.09.21-.17.32-.26,1.61-1.27,3.54-1.98,5.53-1.9.26,0,.52.03.77.06,3.94.54,6.89,4.05,7.55,8.44.11.7.16,1.43.13,2.16,0,.5-.04,1-.11,1.51Z"/>
      <path class="cls-1" d="m31.39,56.62c-.02.48-.09.94-.21,1.38.01.01,0,.02-.01.03,0,.07-.02.13-.04.19l-.06.18c-.12.38-.28.74-.47,1.08,0,.01,0,.02-.01.03-1.14,2.09-3.4,3.47-5.95,3.38-3.59-.13-6.4-3.15-6.26-6.74.13-3.6,3.14-6.4,6.74-6.27,1.43.05,2.74.56,3.78,1.39-1.91,1.65-2.93,3.37-2.36,4.24.54.83,2.4.64,4.57-.35.03-.02.05-.03.08-.04.02-.01.05-.02.07-.03.06.29.1.58.11.88.02.21.03.43.02.65Z"/>
      <path class="cls-1" d="m63.78,48.47c-2.04-1.82-4.7-2.96-7.64-3.06-2.32-.09-4.51.48-6.4,1.54-.72.41-1.4.88-2.02,1.42-2.48,2.14-4.09,5.26-4.22,8.78-.13,3.52,1.25,6.75,3.56,9.06.58.59,1.22,1.12,1.92,1.57l.03-.96.02-.52c-.71-.55-1.35-1.17-1.9-1.87-1.58-1.98-2.49-4.51-2.39-7.23.1-2.72,1.19-5.18,2.91-7.04.61-.66,1.29-1.24,2.04-1.73.07-.04.14-.09.22-.14.07-.04.14-.09.22-.13.07-.05.15-.09.22-.13.04-.02.07-.04.11-.06.19-.11.39-.21.58-.3.02-.01.04-.02.06-.03.17-.07.33-.14.5-.21.05-.02.11-.05.17-.07.06-.03.12-.05.18-.06t.02-.01s.03-.02.05-.02c.15-.06.3-.11.45-.15.02-.01.03-.02.05-.02.5-.15,1.01-.27,1.53-.34.26-.04.52-.07.79-.09h.03c.06-.01.11-.01.16-.01.15-.01.3-.02.44-.01h.15s.03,0,.04,0h.29c.23,0,.46,0,.69.03.18.02.36.04.54.06.18.03.36.06.53.09.18.03.35.07.53.11.17.04.34.09.51.14.17.05.34.1.51.16.21.08.43.16.64.24,1.46.62,2.76,1.53,3.82,2.68,1.91,2.05,3.03,4.83,2.92,7.85-.11,3.01-1.44,5.71-3.49,7.61l-.02.48-.04,1.2c2.8-2.14,4.65-5.46,4.79-9.24.14-3.79-1.47-7.24-4.1-9.58Z"/>
      <path class="cls-1" d="m61.3,58.01c-.13,3.59-3.15,6.4-6.74,6.26-2.29-.08-4.26-1.33-5.34-3.16-.64-1.04-.98-2.27-.93-3.58s.48-2.51,1.19-3.51h0c1.22-1.74,3.27-2.84,5.55-2.76,1.44.06,2.74.57,3.79,1.39-1.92,1.66-2.93,3.38-2.37,4.25.56.85,2.49.63,4.73-.42.1.49.14,1,.12,1.53Z"/>
      <path class="cls-1" d="m33.95,42.78c-.46.26-.99.49-1.55.69-.15.05-.31.1-.46.14-2.29.69-4.33.47-4.69-.54-.39-1.09,1.31-2.67,3.77-3.54.37-.13.73-.23,1.08-.31.72-.17,1.4-.25,1.99-.23,1.08.03,1.88.35,2.09.95.29.84-.65,1.97-2.23,2.84Z"/>
      <path class="cls-1" d="m52.69,43.88c-.23.75-1.37,1.12-2.88,1.03-.6-.03-1.26-.13-1.95-.32-.1-.02-.2-.05-.3-.08-2.5-.76-4.26-2.26-3.92-3.37.3-.99,2.18-1.31,4.37-.82.25.05.5.11.76.19.42.13.82.28,1.19.44,1.84.81,3.01,2.01,2.73,2.93Z"/>
      <g>
        <g>
          <path class="cls-1" d="m38.82,75.45c-1.49.85-2.78,2.09-3.71,3.59-.89-.27-1.69-.7-2.44-1.31-.68-.53-1.31-1.22-1.91-2.06-.88-1.23-1.7-2.81-2.49-4.77.87.68,1.73,1.31,2.6,1.88.64.42,1.29.8,1.94,1.13,1.61.83,3.28,1.38,5.1,1.51.3.02.61.03.91.03Z"/>
          <path class="cls-1" d="m47.84,72.03c-.34.71-.69,1.42-1.07,2.09-.04.08-.09.15-.14.23-.73-.16-1.49-.24-2.24-.24.8-.38,1.62-.84,2.43-1.38.34-.21.68-.45,1.02-.7Z"/>
          <path class="cls-1" d="m46.77,74.12v.26s-.1-.03-.14-.03c.05-.08.1-.15.14-.23Z"/>
          <path class="cls-1" d="m46.63,74.35s.09.01.13.03v-.26c-.03.08-.08.15-.13.23Z"/>
        </g>
        <path class="cls-1" d="m46.31,74.89c-.08.13-.16.25-.25.38-.04.06-.08.11-.11.16-.14.2-.28.38-.42.56-.15.18-.3.34-.45.51-1.78,1.87-4.2,2.96-6.62,2.99-.67.02-1.26-.02-1.84-.1-.1-.02-.19-.03-.29-.05-.2-.03-.4-.07-.62-.13,1.03-1.59,2.51-2.9,4.25-3.68.16-.07.32-.14.48-.2.01,0,.03-.01.04-.01.68-.26,1.41-.43,2.16-.52.01-.01.02-.01.03-.01,1.22-.16,2.49-.12,3.64.1Z"/>
      </g>
    </g>
  </g>
</svg>